<svg width="33" height="38" viewBox="0 0 33 38" fill="none" xmlns="http://www.w3.org/2000/svg">
<path d="M25.0363 7.55725C23.8144 6.15648 23.0799 4.33 23.0799 2.33325H21.5489M25.0363 7.55725C26.1498 8.8343 27.6574 9.76305 29.3743 10.1267C29.9078 10.2428 30.4644 10.3048 31.0444 10.3048V16.0318C28.0751 16.0318 25.3221 15.0799 23.0796 13.4701V25.1178C23.0796 30.9378 18.3471 35.6666 12.5399 35.6666C9.50082 35.6666 6.75567 34.3663 4.8302 32.2999C3.07487 30.4116 2 27.8884 2 25.1178C2 19.3829 6.5933 14.7084 12.2846 14.5846M25.0363 7.55725C25.0066 7.53785 24.9769 7.51827 24.9474 7.49849M8.6426 27.9194C8.07038 27.1301 7.73013 26.1628 7.73013 25.1101C7.73013 22.4556 9.88758 20.2963 12.54 20.2963C13.0349 20.2963 13.5143 20.3813 13.9628 20.5206V14.6698C13.4988 14.6078 13.0271 14.5691 12.54 14.5691C12.4549 14.5691 11.7697 14.6147 11.6846 14.6147M21.5408 2.33325H17.3496L17.3419 25.2958C17.2491 27.8653 15.1303 29.9317 12.5399 29.9317C10.9314 29.9317 9.51628 29.1346 8.63475 27.9272" stroke="white" stroke-width="3" stroke-linejoin="round"/>
</svg>
